<?xml version="1.0" encoding="utf-8"?>
<!-- Generator: Adobe Illustrator 22.1.0, SVG Export Plug-In . SVG Version: 6.00 Build 0)  -->
<svg version="1.1" id="Object" xmlns="http://www.w3.org/2000/svg" xmlns:xlink="http://www.w3.org/1999/xlink" x="0px" y="0px"
	 viewBox="0 0 45 8" style="enable-background:new 0 0 45 8;" xml:space="preserve">
<style type="text/css">
	.st0{fill:#D8B57A;}
</style>
<g>
	<path class="st0" d="M4,0.7l0.9,1.8c0,0.1,0.1,0.1,0.2,0.2l2,0.3c0.2,0,0.3,0.3,0.2,0.5L5.8,4.9C5.7,4.9,5.7,5,5.7,5.1l0.3,2
		c0,0.2-0.2,0.4-0.4,0.3L3.8,6.5c-0.1,0-0.2,0-0.3,0L1.8,7.5C1.5,7.6,1.3,7.4,1.3,7.2l0.3-2c0-0.1,0-0.2-0.1-0.3L0.1,3.5
		C-0.1,3.3,0,3,0.3,2.9l2-0.3c0.1,0,0.2-0.1,0.2-0.2l0.9-1.8C3.5,0.4,3.9,0.4,4,0.7z"/>
	<path class="st0" d="M23.3,0.7l0.9,1.8c0,0.1,0.1,0.1,0.2,0.2l2,0.3c0.2,0,0.3,0.3,0.2,0.5l-1.5,1.4c-0.1,0.1-0.1,0.2-0.1,0.3
		l0.3,2c0,0.2-0.2,0.4-0.4,0.3l-1.8-0.9c-0.1,0-0.2,0-0.3,0l-1.8,0.9c-0.2,0.1-0.5-0.1-0.4-0.3l0.3-2c0-0.1,0-0.2-0.1-0.3l-1.5-1.4
		c-0.2-0.2-0.1-0.5,0.2-0.5l2-0.3c0.1,0,0.2-0.1,0.2-0.2l0.9-1.8C22.9,0.4,23.2,0.4,23.3,0.7z"/>
	<path class="st0" d="M41.6,0.7l0.9,1.8c0,0.1,0.1,0.1,0.2,0.2l2,0.3c0.2,0,0.3,0.3,0.2,0.5l-1.5,1.4c-0.1,0.1-0.1,0.2-0.1,0.3
		l0.3,2c0,0.2-0.2,0.4-0.4,0.3l-1.8-0.9c-0.1,0-0.2,0-0.3,0l-1.8,0.9c-0.2,0.1-0.5-0.1-0.4-0.3l0.3-2c0-0.1,0-0.2-0.1-0.3l-1.5-1.4
		c-0.2-0.2-0.1-0.5,0.2-0.5l2-0.3c0.1,0,0.2-0.1,0.2-0.2L41,0.7C41.1,0.4,41.5,0.4,41.6,0.7z"/>
</g>
</svg>
